<svg preserveAspectRatio="none" overflow="visible" style="display: block;" width="37" height="37" viewBox="0 0 37 37" fill="none" xmlns="http://www.w3.org/2000/svg">
<g id="ant-design:setting-filled">
<path id="Vector" d="M18.5181 14.1135C17.4377 14.1135 16.426 14.5326 15.66 15.2986C14.8976 16.0646 14.4748 17.0764 14.4748 18.1567C14.4748 19.2371 14.8976 20.2488 15.66 21.0148C16.426 21.7772 17.4377 22.2 18.5181 22.2C19.5984 22.2 20.6102 21.7772 21.3762 21.0148C22.1386 20.2488 22.5613 19.2371 22.5613 18.1567C22.5613 17.0764 22.1386 16.0646 21.3762 15.2986C21.002 14.9216 20.5567 14.6227 20.0661 14.4192C19.5754 14.2158 19.0492 14.1119 18.5181 14.1135ZM33.4156 22.6228L31.0525 20.6029C31.1646 19.9164 31.2224 19.2154 31.2224 18.5181C31.2224 17.8207 31.1646 17.1161 31.0525 16.4332L33.4156 14.4134C33.5941 14.2606 33.7219 14.057 33.7819 13.8298C33.842 13.6026 33.8314 13.3626 33.7517 13.1415L33.7191 13.0476C33.0688 11.229 32.0943 9.54324 30.843 8.07207L30.7779 7.99619C30.626 7.81752 30.4235 7.68909 30.197 7.62781C29.9706 7.56653 29.731 7.57529 29.5097 7.65293L26.5757 8.69717C25.4917 7.8083 24.2849 7.10732 22.9769 6.61953L22.4096 3.55186C22.3668 3.32076 22.2547 3.10815 22.0882 2.94229C21.9216 2.77642 21.7086 2.66514 21.4773 2.62324L21.3798 2.60518C19.5009 2.26553 17.5208 2.26553 15.6419 2.60518L15.5443 2.62324C15.3131 2.66514 15.1 2.77642 14.9335 2.94229C14.767 3.10815 14.6549 3.32076 14.6121 3.55186L14.0412 6.63398C12.7456 7.12564 11.5386 7.82492 10.4677 8.70439L7.51201 7.65293C7.29076 7.57467 7.05092 7.5656 6.82439 7.62691C6.59785 7.68823 6.39533 7.81702 6.24375 7.99619L6.17871 8.07207C4.92955 9.54479 3.95533 11.2301 3.30254 13.0476L3.27002 13.1415C3.10742 13.5932 3.24111 14.099 3.60605 14.4134L5.99805 16.4549C5.88604 17.1342 5.83184 17.8279 5.83184 18.5145C5.83184 19.2082 5.88604 19.902 5.99805 20.574L3.61328 22.6155C3.43477 22.7683 3.30701 22.9719 3.24698 23.1991C3.18696 23.4263 3.19751 23.6664 3.27725 23.8874L3.30977 23.9813C3.96377 25.7988 4.92852 27.479 6.18594 28.9568L6.25098 29.0327C6.40293 29.2114 6.60545 29.3398 6.83186 29.4011C7.05826 29.4624 7.29791 29.4536 7.51924 29.376L10.4749 28.3245C11.5517 29.2098 12.7513 29.9107 14.0484 30.3949L14.6193 33.4771C14.6621 33.7081 14.7742 33.9208 14.9408 34.0866C15.1073 34.2525 15.3203 34.3638 15.5516 34.4057L15.6491 34.4237C17.5465 34.7652 19.4896 34.7652 21.387 34.4237L21.4846 34.4057C21.7158 34.3638 21.9289 34.2525 22.0954 34.0866C22.2619 33.9208 22.374 33.7081 22.4168 33.4771L22.9841 30.4094C24.2921 29.918 25.4989 29.2206 26.5829 28.3317L29.5169 29.376C29.7382 29.4542 29.978 29.4633 30.2045 29.402C30.4311 29.3407 30.6336 29.2119 30.7852 29.0327L30.8502 28.9568C32.1076 27.4718 33.0724 25.7988 33.7264 23.9813L33.7589 23.8874C33.9143 23.4394 33.7806 22.9371 33.4156 22.6228ZM18.5181 24.5089C15.0096 24.5089 12.1659 21.6652 12.1659 18.1567C12.1659 14.6482 15.0096 11.8046 18.5181 11.8046C22.0266 11.8046 24.8702 14.6482 24.8702 18.1567C24.8702 21.6652 22.0266 24.5089 18.5181 24.5089Z" fill="black"/>
</g>
</svg>
